<svg xmlns="http://www.w3.org/2000/svg" viewBox="0 0 200 200" fill="none">
<style>
svg{color:#a3e635}
line,path,circle{stroke:#dde3ec;stroke-width:5;stroke-linecap:round;fill:none}
.far line,.far path{stroke:#7d8595}
.dev line,.dev path,.dev circle{stroke:#5c6678;stroke-width:4}
.dev .fill{fill:#39414f;stroke:none}
.halo line{stroke:currentColor;stroke-width:14;opacity:0.22}
.acc line{stroke:currentColor;stroke-width:6}
.arr{stroke:currentColor;stroke-width:3.5;opacity:0.9}
.f1{animation:fa 1.9s ease-in-out infinite}.f2{opacity:0;animation:fb 1.9s ease-in-out infinite}
@keyframes fa{0%,42%{opacity:1}52%,90%{opacity:0}100%{opacity:1}}
@keyframes fb{0%,42%{opacity:0}52%,90%{opacity:1}100%{opacity:0}}
@media (prefers-reduced-motion:reduce){.f1,.f2{animation:none}}</style>
<defs><marker id="ah" markerWidth="12" markerHeight="12" refX="8" refY="6" orient="auto" markerUnits="userSpaceOnUse"><path d="M1 1 L10 6 L1 11 Z" style="fill:#a3e635;stroke:none"/></marker></defs>
<g class="dev"><line x1="100" y1="122" x2="100" y2="166"/><line x1="84" y1="166" x2="116" y2="166"/></g>
<g class="f1"><g class="far"><line x1="100" y1="70" x2="110.1" y2="91.8"/><line x1="110.1" y1="91.8" x2="115.6" y2="106.8"/><line x1="100" y1="114" x2="115" y2="142.3"/><line x1="115" y1="142.3" x2="127" y2="171.9"/></g><line x1="100" y1="114" x2="100" y2="70"/><circle cx="100" cy="57" r="7"/><line x1="100" y1="70" x2="89.9" y2="91.8"/><line x1="89.9" y1="91.8" x2="84.4" y2="106.8"/><line x1="100" y1="114" x2="85" y2="142.3"/><line x1="85" y1="142.3" x2="73" y2="171.9"/><g class="halo"><line x1="100" y1="114" x2="85" y2="142.3"/><line x1="100" y1="114" x2="115" y2="142.3"/></g><g class="acc"><line x1="100" y1="114" x2="85" y2="142.3"/><line x1="100" y1="114" x2="115" y2="142.3"/></g></g><g class="f2"><g class="far"><line x1="100" y1="70" x2="110.1" y2="91.8"/><line x1="110.1" y1="91.8" x2="115.6" y2="106.8"/><line x1="100" y1="114" x2="96.7" y2="145.8"/><line x1="96.7" y1="145.8" x2="95.5" y2="177.8"/></g><line x1="100" y1="114" x2="100" y2="70"/><circle cx="100" cy="57" r="7"/><line x1="100" y1="70" x2="89.9" y2="91.8"/><line x1="89.9" y1="91.8" x2="84.4" y2="106.8"/><line x1="100" y1="114" x2="103.3" y2="145.8"/><line x1="103.3" y1="145.8" x2="104.5" y2="177.8"/><g class="halo"><line x1="100" y1="114" x2="103.3" y2="145.8"/><line x1="100" y1="114" x2="96.7" y2="145.8"/></g><g class="acc"><line x1="100" y1="114" x2="103.3" y2="145.8"/><line x1="100" y1="114" x2="96.7" y2="145.8"/></g></g>
</svg>