<svg xmlns="http://www.w3.org/2000/svg" viewBox="0 0 200 200" fill="none">
<style>
svg{color:#a3e635}
line,path,circle{stroke:#dde3ec;stroke-width:5;stroke-linecap:round;fill:none}
.far line,.far path{stroke:#7d8595}
.dev line,.dev path,.dev circle{stroke:#5c6678;stroke-width:4}
.dev .fill{fill:#39414f;stroke:none}
.halo line{stroke:currentColor;stroke-width:14;opacity:0.22}
.acc line{stroke:currentColor;stroke-width:6}
.arr{stroke:currentColor;stroke-width:3.5;opacity:0.9}
.f1{animation:fa 1.9s ease-in-out infinite}.f2{opacity:0;animation:fb 1.9s ease-in-out infinite}
@keyframes fa{0%,42%{opacity:1}52%,90%{opacity:0}100%{opacity:1}}
@keyframes fb{0%,42%{opacity:0}52%,90%{opacity:1}100%{opacity:0}}
@media (prefers-reduced-motion:reduce){.f1,.f2{animation:none}}</style>
<defs><marker id="ah" markerWidth="12" markerHeight="12" refX="8" refY="6" orient="auto" markerUnits="userSpaceOnUse"><path d="M1 1 L10 6 L1 11 Z" style="fill:#a3e635;stroke:none"/></marker></defs>
<g class="dev"><line x1="44" y1="144" x2="152" y2="144"/><line x1="56" y1="144" x2="56" y2="166"/><line x1="140" y1="144" x2="140" y2="166"/></g>
<g class="f1"><line x1="110" y1="138" x2="60.1" y2="134.5"/><circle cx="47.1" cy="135" r="7"/><line x1="60.1" y1="134.5" x2="58.4" y2="154.4"/><line x1="58.4" y1="154.4" x2="55.6" y2="170.2"/><line x1="110" y1="138" x2="143.8" y2="134.4"/><line x1="143.8" y1="134.4" x2="179.7" y2="137"/><g class="halo"><line x1="110" y1="138" x2="143.8" y2="134.4"/></g><g class="acc"><line x1="110" y1="138" x2="143.8" y2="134.4"/></g><g class="dev"><circle cx="179.7" cy="137" r="5"/></g></g><g class="f2"><line x1="110" y1="138" x2="60.1" y2="134.5"/><circle cx="47.1" cy="135" r="7"/><line x1="60.1" y1="134.5" x2="58.4" y2="154.4"/><line x1="58.4" y1="154.4" x2="55.6" y2="170.2"/><line x1="110" y1="138" x2="143.8" y2="134.4"/><line x1="143.8" y1="134.4" x2="149.7" y2="101"/><g class="halo"><line x1="110" y1="138" x2="143.8" y2="134.4"/></g><g class="acc"><line x1="110" y1="138" x2="143.8" y2="134.4"/></g><g class="dev"><circle cx="149.7" cy="101" r="5"/></g></g>
</svg>