<svg xmlns="http://www.w3.org/2000/svg" viewBox="0 0 200 200" fill="none">
<style>
svg{color:#a3e635}
line,path,circle{stroke:#dde3ec;stroke-width:5;stroke-linecap:round;fill:none}
.far line,.far path{stroke:#7d8595}
.dev line,.dev path,.dev circle{stroke:#5c6678;stroke-width:4}
.dev .fill{fill:#39414f;stroke:none}
.halo line{stroke:currentColor;stroke-width:14;opacity:0.22}
.acc line{stroke:currentColor;stroke-width:6}
.arr{stroke:currentColor;stroke-width:3.5;opacity:0.9}
.f1{animation:fa 1.9s ease-in-out infinite}.f2{opacity:0;animation:fb 1.9s ease-in-out infinite}
@keyframes fa{0%,42%{opacity:1}52%,90%{opacity:0}100%{opacity:1}}
@keyframes fb{0%,42%{opacity:0}52%,90%{opacity:1}100%{opacity:0}}
@media (prefers-reduced-motion:reduce){.f1,.f2{animation:none}}</style>
<defs><marker id="ah" markerWidth="12" markerHeight="12" refX="8" refY="6" orient="auto" markerUnits="userSpaceOnUse"><path d="M1 1 L10 6 L1 11 Z" style="fill:#a3e635;stroke:none"/></marker></defs>
<g class="dev"><line x1="38" y1="84" x2="68" y2="130"/><line x1="52" y1="130" x2="52" y2="166"/><line x1="38" y1="166" x2="70" y2="166"/></g>
<g class="f1"><line x1="76" y1="122" x2="44.9" y2="90.9"/><circle cx="35.7" cy="81.7" r="7"/><line x1="44.9" y1="90.9" x2="57.1" y2="101.2"/><line x1="57.1" y1="101.2" x2="59.2" y2="113"/><line x1="76" y1="122" x2="106.4" y2="112.1"/><line x1="106.4" y1="112.1" x2="124.5" y2="140.9"/><g class="halo"><line x1="76" y1="122" x2="106.4" y2="112.1"/></g><g class="acc"><line x1="76" y1="122" x2="106.4" y2="112.1"/></g><g class="dev"><line x1="130.5" y1="117.5" x2="138.5" y2="157.5"/></g></g><g class="f2"><line x1="76" y1="122" x2="44.9" y2="90.9"/><circle cx="35.7" cy="81.7" r="7"/><line x1="44.9" y1="90.9" x2="57.1" y2="101.2"/><line x1="57.1" y1="101.2" x2="59.2" y2="113"/><line x1="76" y1="122" x2="111.6" y2="117"/><line x1="111.6" y1="117" x2="149.1" y2="123.6"/><g class="halo"><line x1="76" y1="122" x2="111.6" y2="117"/></g><g class="acc"><line x1="76" y1="122" x2="111.6" y2="117"/></g><g class="dev"><line x1="155.1" y1="100.1" x2="163.1" y2="140.1"/></g></g>
</svg>