<svg xmlns="http://www.w3.org/2000/svg" viewBox="0 0 200 200" fill="none">
<style>
svg{color:#22d3ee}
line,path,circle{stroke:#dde3ec;stroke-width:5;stroke-linecap:round;fill:none}
.far line,.far path{stroke:#7d8595}
.dev line,.dev path,.dev circle{stroke:#5c6678;stroke-width:4}
.dev .fill{fill:#39414f;stroke:none}
.halo line{stroke:currentColor;stroke-width:14;opacity:0.22}
.acc line{stroke:currentColor;stroke-width:6}
.arr{stroke:currentColor;stroke-width:3.5;opacity:0.9}
.f1{animation:fa 1.9s ease-in-out infinite}.f2{opacity:0;animation:fb 1.9s ease-in-out infinite}
@keyframes fa{0%,42%{opacity:1}52%,90%{opacity:0}100%{opacity:1}}
@keyframes fb{0%,42%{opacity:0}52%,90%{opacity:1}100%{opacity:0}}
@media (prefers-reduced-motion:reduce){.f1,.f2{animation:none}}</style>
<defs><marker id="ah" markerWidth="12" markerHeight="12" refX="8" refY="6" orient="auto" markerUnits="userSpaceOnUse"><path d="M1 1 L10 6 L1 11 Z" style="fill:#22d3ee;stroke:none"/></marker></defs>
<g class="dev"><line x1="64" y1="166" x2="152" y2="166"/><line x1="128" y1="166" x2="128" y2="64"/></g>
<g class="f1"><g class="far"><line x1="103.8" y1="58.2" x2="114.4" y2="75.1"/><line x1="114.4" y1="75.1" x2="130" y2="84.1"/><line x1="100" y1="102" x2="87.3" y2="133.5"/><line x1="87.3" y1="133.5" x2="91.2" y2="161.3"/></g><line x1="100" y1="102" x2="103.8" y2="58.2"/><circle cx="105" cy="45.2" r="7"/><line x1="103.8" y1="58.2" x2="125.6" y2="61.2"/><line x1="125.6" y1="61.2" x2="144.6" y2="67.4"/><line x1="100" y1="102" x2="116" y2="132"/><line x1="116" y1="132" x2="115" y2="160"/><g class="dev"><line x1="128" y1="80" x2="144.6" y2="67.4"/><line x1="128" y1="80" x2="130" y2="84.1"/><line x1="106" y1="163" x2="124" y2="163"/><line x1="82.2" y1="164.3" x2="100.2" y2="164.3"/></g></g><g class="f2"><g class="far"><line x1="103.8" y1="58.2" x2="125.6" y2="61.2"/><line x1="125.6" y1="61.2" x2="144.6" y2="67.4"/><line x1="100" y1="102" x2="116" y2="132"/><line x1="116" y1="132" x2="115" y2="160"/></g><line x1="100" y1="102" x2="103.8" y2="58.2"/><circle cx="105" cy="45.2" r="7"/><line x1="103.8" y1="58.2" x2="114.4" y2="75.1"/><line x1="114.4" y1="75.1" x2="130" y2="84.1"/><line x1="100" y1="102" x2="87.3" y2="133.5"/><line x1="87.3" y1="133.5" x2="91.2" y2="161.3"/><g class="dev"><line x1="128" y1="80" x2="130" y2="84.1"/><line x1="128" y1="80" x2="144.6" y2="67.4"/><line x1="82.2" y1="164.3" x2="100.2" y2="164.3"/><line x1="106" y1="163" x2="124" y2="163"/></g></g>
</svg>