<svg xmlns="http://www.w3.org/2000/svg" viewBox="0 0 200 200" fill="none">
<style>
svg{color:#22d3ee}
line,path,circle{stroke:#dde3ec;stroke-width:5;stroke-linecap:round;fill:none}
.far line,.far path{stroke:#7d8595}
.dev line,.dev path,.dev circle{stroke:#5c6678;stroke-width:4}
.dev .fill{fill:#39414f;stroke:none}
.halo line{stroke:currentColor;stroke-width:14;opacity:0.22}
.acc line{stroke:currentColor;stroke-width:6}
.arr{stroke:currentColor;stroke-width:3.5;opacity:0.9}
.f1{animation:fa 1.9s ease-in-out infinite}.f2{opacity:0;animation:fb 1.9s ease-in-out infinite}
@keyframes fa{0%,42%{opacity:1}52%,90%{opacity:0}100%{opacity:1}}
@keyframes fb{0%,42%{opacity:0}52%,90%{opacity:1}100%{opacity:0}}
@media (prefers-reduced-motion:reduce){.f1,.f2{animation:none}}</style>
<defs><marker id="ah" markerWidth="12" markerHeight="12" refX="8" refY="6" orient="auto" markerUnits="userSpaceOnUse"><path d="M1 1 L10 6 L1 11 Z" style="fill:#22d3ee;stroke:none"/></marker></defs>
<g class="dev"><circle cx="62" cy="148" r="16"/><circle cx="142" cy="148" r="13"/><line x1="62" y1="148" x2="100" y2="138"/><line x1="100" y1="138" x2="142" y2="148"/><line x1="100" y1="138" x2="96" y2="104"/><line x1="88" y1="104" x2="106" y2="104"/><line x1="100" y1="138" x2="132" y2="96"/><line x1="126" y1="94" x2="140" y2="90"/></g>
<g class="f1"><g class="far"><line x1="96" y1="100" x2="92.7" y2="123.8"/><line x1="92.7" y1="123.8" x2="102" y2="143.7"/></g><line x1="96" y1="100" x2="109" y2="60.1"/><circle cx="113" cy="47.7" r="7"/><line x1="109" y1="60.1" x2="126.3" y2="73.6"/><line x1="126.3" y1="73.6" x2="136.9" y2="90.6"/><line x1="96" y1="100" x2="110.9" y2="121.3"/><line x1="110.9" y1="121.3" x2="109" y2="143.2"/><g class="dev"><line x1="102" y1="143.2" x2="116" y2="143.2"/><line x1="95" y1="143.7" x2="109" y2="143.7"/></g></g><g class="f2"><g class="far"><line x1="96" y1="100" x2="109.8" y2="119.7"/><line x1="109.8" y1="119.7" x2="106.7" y2="141.4"/></g><line x1="96" y1="100" x2="109" y2="60.1"/><circle cx="113" cy="47.7" r="7"/><line x1="109" y1="60.1" x2="126.3" y2="73.6"/><line x1="126.3" y1="73.6" x2="136.9" y2="90.6"/><line x1="96" y1="100" x2="92.4" y2="125.7"/><line x1="92.4" y1="125.7" x2="102.7" y2="145.2"/><g class="dev"><line x1="95.7" y1="145.2" x2="109.7" y2="145.2"/><line x1="99.7" y1="141.4" x2="113.7" y2="141.4"/></g></g>
</svg>