<svg xmlns="http://www.w3.org/2000/svg" viewBox="0 0 200 200" fill="none">
<style>
svg{color:#a78bfa}
line,path,circle{stroke:#dde3ec;stroke-width:5;stroke-linecap:round;fill:none}
.far line,.far path{stroke:#7d8595}
.dev line,.dev path,.dev circle{stroke:#5c6678;stroke-width:4}
.dev .fill{fill:#39414f;stroke:none}
.halo line{stroke:currentColor;stroke-width:14;opacity:0.22}
.acc line{stroke:currentColor;stroke-width:6}
.arr{stroke:currentColor;stroke-width:3.5;opacity:0.9}
</style>
<defs><marker id="ah" markerWidth="12" markerHeight="12" refX="8" refY="6" orient="auto" markerUnits="userSpaceOnUse"><path d="M1 1 L10 6 L1 11 Z" style="fill:#a78bfa;stroke:none"/></marker></defs>
<g class="dev"><line x1="26" y1="170" x2="174" y2="170" opacity="0.45"/></g>
<g class="far"><line x1="100" y1="64" x2="108.2" y2="86.6"/><line x1="108.2" y1="86.6" x2="112.9" y2="103.9"/><line x1="100" y1="110" x2="95.3" y2="143.7"/><line x1="95.3" y1="143.7" x2="94.2" y2="175.6"/></g><line x1="100" y1="110" x2="100" y2="64"/><circle cx="108.7" cy="54.3" r="7"/><line x1="100" y1="64" x2="91.8" y2="86.6"/><line x1="91.8" y1="86.6" x2="87.1" y2="103.9"/><line x1="100" y1="110" x2="104.7" y2="143.7"/><line x1="104.7" y1="143.7" x2="105.8" y2="175.6"/><g class="halo"><circle cx="100" cy="64" r="11" fill="currentColor" stroke="none" opacity="0.22"/></g><g class="acc"><circle cx="100" cy="64" r="4.5" fill="currentColor" stroke="none"/></g><path class="arr" d="M 122 46 Q 130 56 124 68" marker-end="url(#ah)"/>
</svg>