<svg xmlns="http://www.w3.org/2000/svg" viewBox="0 0 200 200" fill="none">
<style>
svg{color:#a78bfa}
line,path,circle{stroke:#dde3ec;stroke-width:5;stroke-linecap:round;fill:none}
.far line,.far path{stroke:#7d8595}
.dev line,.dev path,.dev circle{stroke:#5c6678;stroke-width:4}
.dev .fill{fill:#39414f;stroke:none}
.halo line{stroke:currentColor;stroke-width:14;opacity:0.22}
.acc line{stroke:currentColor;stroke-width:6}
.arr{stroke:currentColor;stroke-width:3.5;opacity:0.9}
</style>
<defs><marker id="ah" markerWidth="12" markerHeight="12" refX="8" refY="6" orient="auto" markerUnits="userSpaceOnUse"><path d="M1 1 L10 6 L1 11 Z" style="fill:#a78bfa;stroke:none"/></marker></defs>
<g class="dev"><line x1="26" y1="170" x2="174" y2="170" opacity="0.45"/></g>
<g class="far"><line x1="100" y1="66" x2="90.7" y2="85.9"/><line x1="90.7" y1="85.9" x2="68.1" y2="77.7"/><line x1="100" y1="112" x2="95.3" y2="145.7"/><line x1="95.3" y1="145.7" x2="94.2" y2="177.6"/></g><line x1="100" y1="112" x2="100" y2="66"/><circle cx="100" cy="53" r="7"/><line x1="100" y1="66" x2="76.1" y2="68.1"/><line x1="76.1" y1="68.1" x2="58.7" y2="72.8"/><line x1="100" y1="112" x2="104.7" y2="145.7"/><line x1="104.7" y1="145.7" x2="105.8" y2="177.6"/><g class="halo"><line x1="100" y1="66" x2="76.1" y2="68.1"/></g><g class="acc"><line x1="100" y1="66" x2="76.1" y2="68.1"/></g><path class="arr" d="M 84 58 L 64 58" marker-end="url(#ah)"/>
</svg>