<svg xmlns="http://www.w3.org/2000/svg" viewBox="0 0 200 200" fill="none">
<style>
svg{color:#a3e635}
line,path,circle{stroke:#dde3ec;stroke-width:5;stroke-linecap:round;fill:none}
.far line,.far path{stroke:#7d8595}
.dev line,.dev path,.dev circle{stroke:#5c6678;stroke-width:4}
.dev .fill{fill:#39414f;stroke:none}
.halo line{stroke:currentColor;stroke-width:14;opacity:0.22}
.acc line{stroke:currentColor;stroke-width:6}
.arr{stroke:currentColor;stroke-width:3.5;opacity:0.9}
.f1{animation:fa 1.9s ease-in-out infinite}.f2{opacity:0;animation:fb 1.9s ease-in-out infinite}
@keyframes fa{0%,42%{opacity:1}52%,90%{opacity:0}100%{opacity:1}}
@keyframes fb{0%,42%{opacity:0}52%,90%{opacity:1}100%{opacity:0}}
@media (prefers-reduced-motion:reduce){.f1,.f2{animation:none}}</style>
<defs><marker id="ah" markerWidth="12" markerHeight="12" refX="8" refY="6" orient="auto" markerUnits="userSpaceOnUse"><path d="M1 1 L10 6 L1 11 Z" style="fill:#a3e635;stroke:none"/></marker></defs>
<g class="dev"><line x1="26" y1="170" x2="174" y2="170" opacity="0.45"/><circle cx="126" cy="26" r="5"/><line x1="126" y1="14" x2="126" y2="21"/></g>
<g class="f1"><g class="far"><line x1="96" y1="106" x2="91.3" y2="139.7"/><line x1="91.3" y1="139.7" x2="90.2" y2="171.6"/></g><line x1="96" y1="106" x2="97.7" y2="58"/><circle cx="98.1" cy="45" r="7"/><line x1="97.7" y1="58" x2="105.2" y2="78.7"/><line x1="105.2" y1="78.7" x2="124.6" y2="68.4"/><line x1="96" y1="106" x2="100.7" y2="139.7"/><line x1="100.7" y1="139.7" x2="101.8" y2="171.6"/><g class="halo"><line x1="97.7" y1="58" x2="105.2" y2="78.7"/></g><g class="acc"><line x1="97.7" y1="58" x2="105.2" y2="78.7"/></g><g class="dev"><line x1="126" y1="31" x2="124.6" y2="68.4"/><line x1="116.6" y1="68.4" x2="132.6" y2="68.4"/></g></g><g class="f2"><g class="far"><line x1="96" y1="106" x2="91.3" y2="139.7"/><line x1="91.3" y1="139.7" x2="90.2" y2="171.6"/></g><line x1="96" y1="106" x2="97.7" y2="58"/><circle cx="98.1" cy="45" r="7"/><line x1="97.7" y1="58" x2="105.2" y2="78.7"/><line x1="105.2" y1="78.7" x2="112.7" y2="99.4"/><line x1="96" y1="106" x2="100.7" y2="139.7"/><line x1="100.7" y1="139.7" x2="101.8" y2="171.6"/><g class="halo"><line x1="97.7" y1="58" x2="105.2" y2="78.7"/></g><g class="acc"><line x1="97.7" y1="58" x2="105.2" y2="78.7"/></g><g class="dev"><line x1="126" y1="31" x2="112.7" y2="99.4"/><line x1="104.7" y1="99.4" x2="120.7" y2="99.4"/></g></g>
</svg>